<svg xmlns="http://www.w3.org/2000/svg" viewBox="0 0 100.22 20" version="1.1" height="20" width="100,22" id="svg26"><defs id="defs4"><style id="style2">.i{fill:#fff}</style></defs><path id="rect6" fill="#750787" d="M0 0h100.22v20H0z"/><path id="rect8" fill="#004dff" d="M0 0h100.22v16.67H0z"/><path id="rect10" fill="#008026" d="M0 0h100.22v13.33H0z"/><path id="rect12" fill="#ffed00" d="M0 0h100.22v10H0z"/><path id="rect14" fill="#ff8c00" d="M0 0h100.22v6.67H0z"/><path id="rect16" fill="#e40303" d="M0 0h100.22v3.33H0z"/><path id="rect18" style="isolation:isolate" opacity=".25" d="M0 0h61.55v20H0z"/><path id="rect20" style="isolation:isolate" opacity=".35" d="M61.55 0h38.62v20H61.55z"/><path class="i" d="M9.51 12.57H8.13V7.7h1.44a2.27 2.27 0 011.14.3 2.12 2.12 0 01.78.82 2.68 2.68 0 01.27 1.18v.28a2.52 2.52 0 01-.27 1.21 2 2 0 01-.79.81 2.35 2.35 0 01-1.19.27zm-.57-4.19v3.52h.57a1.29 1.29 0 001-.42 1.91 1.91 0 00.36-1.2V10a1.81 1.81 0 00-.35-1.21 1.22 1.22 0 00-1-.42h-.58zm6.22 4.19h-.85V7.7H16a2 2 0 011.3.37 1.36 1.36 0 01.46 1.1 1.41 1.41 0 01-.24.82 1.57 1.57 0 01-.66.51l1.1 2h-.91l-1-1.88h-.94zm0-4.19V10H16a1 1 0 00.67-.21.82.82 0 00.24-.57.87.87 0 00-.22-.61 1 1 0 00-.67-.22h-.89zm5.58 4.19h-.88L21.7 7.7h.76l1.85 4.87h-.89L23 11.43h-1.86zm1.35-3.84l-.71 2h1.41zm5.27 3.84L26.22 7.7h.84l.76 3.66.92-3.66h.72l.91 3.67.76-3.67H32l-1.15 4.87h-.77L29.12 9l-.95 3.56zm11.3-4.19h-1.49V7.7h3.88v.68h-1.53v4.19h-.86zM44 12.57L42.84 7.7h.84l.76 3.66.93-3.66h.72l.91 3.67.74-3.67h.85l-1.14 4.87h-.8L45.74 9l-1 3.56zm6.8-2.28V10a3 3 0 01.2-1.25 1.88 1.88 0 011.8-1.14 2.09 2.09 0 011.06.29 1.83 1.83 0 01.71.82 2.83 2.83 0 01.25 1.28v.32a3 3 0 01-.24 1.25 1.89 1.89 0 01-1.77 1.12 1.88 1.88 0 01-1.06-.29 2 2 0 01-.72-.82 2.9 2.9 0 01-.25-1.29zm.84-.31v.31a2.17 2.17 0 00.32 1.24 1 1 0 00.87.44 1 1 0 00.86-.43 2.22 2.22 0 00.31-1.25V10a2.15 2.15 0 00-.31-1.24 1 1 0 00-.87-.44 1 1 0 00-.86.43 2.19 2.19 0 00-.34 1.25z" id="path22"/><path class="i" d="M71 12.57h-1.34v-4.8h1.12l2.12 2.56V7.77h1.32v4.8h-1.11L71 10zm6-2.4a2.49 2.49 0 01.35-1.28 2.41 2.41 0 01.87-.89 3 3 0 011.38-.33 2.83 2.83 0 011.34.33 2.35 2.35 0 011 .89 2.49 2.49 0 01.35 1.28 2.49 2.49 0 01-.35 1.28 2.35 2.35 0 01-1 .89 2.82 2.82 0 01-1.36.33 2.9 2.9 0 01-1.38-.33 2.44 2.44 0 01-1.26-2.17zm1.37 0a1.51 1.51 0 00.18.72 1.12 1.12 0 00.46.48 1.19 1.19 0 00.66.17 1.13 1.13 0 00.65-.17 1.23 1.23 0 00.48-.48 1.62 1.62 0 00.17-.72 1.62 1.62 0 00-.17-.72 1.28 1.28 0 00-1.15-.65 1.38 1.38 0 00-.66.17 1.32 1.32 0 00-.46.48 1.5 1.5 0 00-.17.72zm9.47.26V7.77h1.36v2.62c0 .77.3 1.15.91 1.15.6 0 .9-.39.9-1.15V7.77h1.29v2.66a2.28 2.28 0 01-.57 1.66 2.32 2.32 0 01-1.67.57 2.28 2.28 0 01-1.66-.57 2.22 2.22 0 01-.6-1.66z" id="path24"/></svg>