<?xml version="1.0" encoding="UTF-8" standalone="no"?>
<svg
   viewBox="0 0 100.22 20"
   version="1.1"
   height="20"
   width="100,22"
   id="svg26"
   inkscape:version="1.1 (c4e8f9e, 2021-05-24)"
   sodipodi:docname="draw-two-no-u.svg"
   xmlns:inkscape="http://www.inkscape.org/namespaces/inkscape"
   xmlns:sodipodi="http://sodipodi.sourceforge.net/DTD/sodipodi-0.dtd"
   xmlns="http://www.w3.org/2000/svg"
   xmlns:svg="http://www.w3.org/2000/svg">
  <sodipodi:namedview
     id="namedview28"
     pagecolor="#ffffff"
     bordercolor="#666666"
     borderopacity="1.0"
     showgrid="false"
     inkscape:zoom="6.8324863"
     inkscape:cx="45.737377"
     inkscape:cy="4.3176084"
     inkscape:window-width="1440"
     inkscape:window-height="797"
     inkscape:window-x="0"
     inkscape:window-y="25"
     inkscape:window-maximized="1"
     inkscape:current-layer="svg26"
     inkscape:pageshadow="2"
     inkscape:pageopacity="0.0"
     inkscape:pagecheckerboard="0" />
  <defs
     id="defs4">
    <style
       id="style2">.a{fill:#750787;}.b{fill:#004dff;}.c{fill:#008026;}.d{fill:#ffed00;}.e{fill:#ff8c00;}.f{fill:#e40303;}.g{opacity:0.25;}.g,.h{isolation:isolate;}.h{opacity:0.35;}.i{fill:#fff;}</style>
  </defs>
  <rect
     class="a"
     width="100.22"
     height="20"
     id="rect6" />
  <rect
     class="b"
     width="100.22"
     height="16.67"
     id="rect8" />
  <rect
     class="c"
     width="100.22"
     height="13.33"
     id="rect10" />
  <rect
     class="d"
     width="100.22"
     height="10"
     id="rect12" />
  <rect
     class="e"
     width="100.22"
     height="6.67"
     id="rect14" />
  <rect
     class="f"
     width="100.22"
     height="3.33"
     id="rect16" />
  <rect
     class="g"
     width="61.55"
     height="20"
     id="rect18" />
  <rect
     class="h"
     x="61.55"
     width="38.62"
     height="20"
     id="rect20" />
  <path
     class="i"
     d="M9.51,12.57H8.13V7.7H9.57A2.27,2.27,0,0,1,10.71,8a2.12,2.12,0,0,1,.78.82A2.68,2.68,0,0,1,11.76,10h0v.28a2.52,2.52,0,0,1-.27,1.21,2,2,0,0,1-.79.81A2.35,2.35,0,0,1,9.51,12.57ZM8.94,8.38V11.9h.57a1.29,1.29,0,0,0,1-.42,1.91,1.91,0,0,0,.36-1.2h0V10a1.81,1.81,0,0,0-.35-1.21,1.22,1.22,0,0,0-1-.42H8.94Zm6.22,4.19h-.85V7.7H16a2,2,0,0,1,1.3.37,1.36,1.36,0,0,1,.46,1.1h0a1.41,1.41,0,0,1-.24.82,1.57,1.57,0,0,1-.66.51h0l1.1,2v0h-.91l-1-1.88h-.94Zm0-4.19V10H16a1,1,0,0,0,.67-.21.82.82,0,0,0,.24-.57h0a.87.87,0,0,0-.22-.61,1,1,0,0,0-.67-.22h-.89Zm5.58,4.19h-.88L21.7,7.7h.76l1.85,4.87h-.89L23,11.43H21.14Zm1.35-3.84-.71,2h1.41Zm5.27,3.84L26.22,7.7h.84l.76,3.66.92-3.66h.72l.91,3.67.76-3.67H32l-1.15,4.87h-.77L29.12,9l-.95,3.56Zm11.3-4.19H37.17V7.7h3.88v.68H39.52v4.19h-.86ZM44,12.57,42.84,7.7h.84l.76,3.66.93-3.66h.72L47,11.37l.74-3.67h.85l-1.14,4.87h-.8L45.74,9l-1,3.56Zm6.8-2.28h0V10A3,3,0,0,1,51,8.75,1.88,1.88,0,0,1,52.8,7.61a2.09,2.09,0,0,1,1.06.29,1.83,1.83,0,0,1,.71.82A2.83,2.83,0,0,1,54.82,10h0v.32a3,3,0,0,1-.24,1.25,1.89,1.89,0,0,1-1.77,1.12h0a1.88,1.88,0,0,1-1.06-.29,2,2,0,0,1-.72-.82A2.9,2.9,0,0,1,50.78,10.29Zm.84-.31v.31a2.17,2.17,0,0,0,.32,1.24,1,1,0,0,0,.87.44h0a1,1,0,0,0,.86-.43A2.22,2.22,0,0,0,54,10.29h0V10a2.15,2.15,0,0,0-.31-1.24,1,1,0,0,0-.87-.44h0a1,1,0,0,0-.86.43A2.19,2.19,0,0,0,51.62,10Z"
     id="path22" />
  <path
     class="i"
     d="M71,12.57H69.66V7.77h1.12l2.12,2.56V7.77h1.32v4.8H73.11L71,10Zm6-2.4h0a2.49,2.49,0,0,1,.35-1.28A2.41,2.41,0,0,1,78.22,8a3,3,0,0,1,1.38-.33h0A2.83,2.83,0,0,1,80.94,8a2.35,2.35,0,0,1,1,.89,2.49,2.49,0,0,1,.35,1.28h0a2.49,2.49,0,0,1-.35,1.28,2.35,2.35,0,0,1-1,.89,2.82,2.82,0,0,1-1.36.33h0a2.9,2.9,0,0,1-1.38-.33A2.44,2.44,0,0,1,76.94,10.17Zm1.37,0h0a1.51,1.51,0,0,0,.18.72,1.12,1.12,0,0,0,.46.48,1.19,1.19,0,0,0,.66.17h0a1.13,1.13,0,0,0,.65-.17,1.23,1.23,0,0,0,.48-.48,1.62,1.62,0,0,0,.17-.72h0a1.62,1.62,0,0,0-.17-.72,1.28,1.28,0,0,0-1.15-.65h0a1.38,1.38,0,0,0-.66.17,1.32,1.32,0,0,0-.46.48,1.5,1.5,0,0,0-.17.72Zm9.47.26h0V7.77h1.36v2.62c0,.77.3,1.15.91,1.15h0c.6,0,.9-.39.9-1.15h0V7.77H92.3v2.66a2.28,2.28,0,0,1-.57,1.66,2.32,2.32,0,0,1-1.67.57h0a2.28,2.28,0,0,1-1.66-.57,2.22,2.22,0,0,1-.6-1.66Z"
     id="path24" />
</svg>
